<svg xmlns="http://www.w3.org/2000/svg" xmlns:xlink="http://www.w3.org/1999/xlink" id="Layer_1" x="0" y="0" enable-background="new 0 0 16.289 16.289" version="1.1" viewBox="0 0 16.289 16.289" xml:space="preserve"><rect width="16.289" height="16.289" x="0" y="0" fill="none"/><g><path fill="#58595B" d="M12.9018173,8.789876c0,0.3565588-0.2891197,0.6456776-0.6456776,0.6456776H9.459094v2.7970457 c0,0.3565588-0.2891197,0.6456776-0.6456776,0.6456776H7.5227289c-0.3565583,0-0.6456776-0.2891188-0.6456776-0.6456776V9.4355536 H4.0800056c-0.3565583,0-0.6456776-0.2891188-0.6456776-0.6456776V7.4991889c0-0.3565583,0.2891192-0.6456776,0.6456776-0.6456776 h2.7970457V4.0564656c0-0.3565581,0.2891192-0.6456773,0.6456776-0.6456773h1.2906876 c0.3565578,0,0.6456776,0.2891192,0.6456776,0.6456773v2.7970457h2.7970457c0.3565578,0,0.6456776,0.2891192,0.6456776,0.6456776 V8.789876z"/></g></svg>