<svg xmlns="http://www.w3.org/2000/svg" xmlns:xlink="http://www.w3.org/1999/xlink" id="Layer_1" x="0" y="0" enable-background="new 0 0 16.289 16.289" version="1.1" viewBox="0 0 16.289 16.289" xml:space="preserve"><g><path fill="#58595B" d="M6.423254,7.4988575c0,0.3565583-0.2891192,0.6456776-0.6456776,0.6456776H3.6262083 c-0.3565583,0-0.6456776-0.2891192-0.6456776-0.6456776V7.068851c0-0.3565583,0.2891192-0.6456776,0.6456776-0.6456776h2.1513681 c0.3565583,0,0.6456776,0.2891192,0.6456776,0.6456776V7.4988575z M5.5625734,5.9928331H3.8412116V3.1954534 c0-0.1208558,0.0941474-0.2150033,0.2150033-0.2150033h1.2913551c0.1208558,0,0.2150035,0.0941474,0.2150035,0.2150033V5.9928331z M5.5625734,13.0936165c0,0.1208563-0.0941477,0.215004-0.2150035,0.215004H4.0562148 c-0.1208558,0-0.2150033-0.0941477-0.2150033-0.215004V8.5748758h1.7213619V13.0936165z M9.8659773,10.9415808 c0,0.3565588-0.2891188,0.6456776-0.6456776,0.6456776H7.0689316c-0.3565583,0-0.6456776-0.2891188-0.6456776-0.6456776v-0.430006 c0-0.3565588,0.2891192-0.6456776,0.6456776-0.6456776h2.1513681c0.3565588,0,0.6456776,0.2891188,0.6456776,0.6456776V10.9415808z M9.0052967,9.4355564H7.2839351V3.1954534c0-0.1208558,0.0941472-0.2150033,0.215003-0.2150033h1.2913556 c0.1208553,0,0.215003,0.0941474,0.215003,0.2150033V9.4355564z M9.0052967,13.0936165 c0,0.1208563-0.0941477,0.215004-0.215003,0.215004H7.4989381c-0.1208558,0-0.215003-0.0941477-0.215003-0.215004v-1.0760174 h1.7213616V13.0936165z M13.3087006,5.7774959c0,0.3565583-0.2891188,0.6456776-0.6456776,0.6456776h-2.1513681 c-0.3565578,0-0.6456776-0.2891192-0.6456776-0.6456776V5.3474894c0-0.3565583,0.2891197-0.6456776,0.6456776-0.6456776h2.1513681 c0.3565588,0,0.6456776,0.2891192,0.6456776,0.6456776V5.7774959z M12.44802,4.2714715h-1.7213621V3.1954534 c0-0.1208558,0.0941477-0.2150033,0.215004-0.2150033h1.2913551c0.1208553,0,0.215003,0.0941474,0.215003,0.2150033V4.2714715z M12.44802,13.0936165c0,0.1208563-0.0941477,0.215004-0.215003,0.215004h-1.2913551 c-0.1208563,0-0.215004-0.0941477-0.215004-0.215004V6.8535137H12.44802V13.0936165z"/></g><rect width="16.289" height="16.289" x="0" y="0" fill="none"/></svg>