<svg xmlns="http://www.w3.org/2000/svg" xmlns:xlink="http://www.w3.org/1999/xlink" id="Layer_1" x="0" y="0" enable-background="new 111.982 169.642 388.042 220.783" version="1.1" viewBox="111.982 169.642 388.042 220.783" xml:space="preserve"><g><g><path fill="#58595B" d="M155.9001312,271.0058594h-35.6478729c-4.5675125,0-8.2702103-3.7027283-8.2702103-8.2702332v-11.394104 c0-4.5675201,3.7026978-8.2702179,8.2702103-8.2702179h104.6375732c4.5675201,0,8.2702179,3.7026978,8.2702179,8.2702179 v11.394104c0,4.5675049-3.7026978,8.2702332-8.2702179,8.2702332h-35.6478729v110.6532288 c0,4.5675049-3.7026978,8.2702026-8.2702179,8.2702026h-16.8013916c-4.5675049,0-8.2702179-3.7026978-8.2702179-8.2702026 V271.0058594z"/></g><g><path fill="#58595B" d="M297.0392456,211.5441284h-57.6252594c-4.5675049,0-8.2702026-3.7026978-8.2702026-8.2702179v-25.3613892 c0-4.5675201,3.7026978-8.2702179,8.2702026-8.2702179h165.2357635c4.5675049,0,8.2702026,3.7026978,8.2702026,8.2702179 v25.3613892c0,4.5675201-3.7026978,8.2702179-8.2702026,8.2702179h-57.6069336v170.1149597 c0,4.5675049-3.7026978,8.2702026-8.2702026,8.2702026h-33.4631653c-4.5675049,0-8.2702026-3.7026978-8.2702026-8.2702026 V211.5441284z"/></g></g></svg>